<?xml version="1.0" encoding="UTF-8" standalone="no"?>
<!-- Generator: Adobe Illustrator 19.0.0, SVG Export Plug-In . SVG Version: 6.00 Build 0)  -->

<svg
   version="1.1"
   id="Capa_1"
   x="0px"
   y="0px"
   viewBox="0 0 512 512"
   style="enable-background:new 0 0 512 512;"
   xml:space="preserve"
   sodipodi:docname="paper.svg"
   inkscape:version="1.3.2 (091e20e, 2023-11-25)"
   xmlns:inkscape="http://www.inkscape.org/namespaces/inkscape"
   xmlns:sodipodi="http://sodipodi.sourceforge.net/DTD/sodipodi-0.dtd"
   xmlns="http://www.w3.org/2000/svg"
   xmlns:svg="http://www.w3.org/2000/svg"><defs
   id="defs17" /><sodipodi:namedview
   id="namedview17"
   pagecolor="#ffffff"
   bordercolor="#000000"
   borderopacity="0.25"
   inkscape:showpageshadow="2"
   inkscape:pageopacity="0.0"
   inkscape:pagecheckerboard="0"
   inkscape:deskcolor="#d1d1d1"
   inkscape:zoom="0.4609375"
   inkscape:cx="280.94915"
   inkscape:cy="264.67797"
   inkscape:window-width="1312"
   inkscape:window-height="449"
   inkscape:window-x="210"
   inkscape:window-y="25"
   inkscape:window-maximized="0"
   inkscape:current-layer="Capa_1" />
<path
   style="fill:#6e3e1e;fill-opacity:1"
   d="M450.4,123.6v256.5c0,9.901-1.8,19.501-5.7,28.801c-5.099,12.001-12.001,19.501-17.1,24.901  c-5.7,6.299-7.2,8.099-7.2,13.499V512h-105l-135-212V63.6c0-18.6,15-33.6,33.6-33.6c18.9,0,33.4,15,33.4,33.6v-30  C247.4,15,262.9,0,281.8,0c18.6,0,33.6,15,33.6,33.6v30c0-18.6,15-33.6,33.6-33.6c18.9,0,33.4,15,33.4,33.6v60  c0-18.6,15.5-33.6,34.4-33.6C435.4,90,450.4,105,450.4,123.6z"
   id="path1" />
<path
   style="fill:#502d16;fill-opacity:1"
   d="M450.4,123.6v256.5c0,9.901-1.8,19.501-5.7,28.801c-5.099,12.001-12.001,19.501-17.1,24.901  c-5.7,6.299-7.2,8.099-7.2,13.499V512h-105V63.6c0-18.6,15-33.6,33.6-33.6c18.9,0,33.4,15,33.4,33.6v60c0-18.6,15.5-33.6,34.4-33.6  C435.4,90,450.4,105,450.4,123.6z"
   id="path2" />
<path
   style="fill:#a35a2d;fill-opacity:1"
   d="M315.4,375v137h-105v-68.301c0-15.298-5.7-29.7-16.199-41.1L61.6,266.4  c11.192-11.178,25.88-17.701,42.601-17.701c41.606,0,73.197,34.248,76.199,36.301h46.5C275.8,285.901,315.4,326.1,315.4,375z"
   id="path3" />
<g
   id="g3">
</g>
<g
   id="g4">
</g>
<g
   id="g5">
</g>
<g
   id="g6">
</g>
<g
   id="g7">
</g>
<g
   id="g8">
</g>
<g
   id="g9">
</g>
<g
   id="g10">
</g>
<g
   id="g11">
</g>
<g
   id="g12">
</g>
<g
   id="g13">
</g>
<g
   id="g14">
</g>
<g
   id="g15">
</g>
<g
   id="g16">
</g>
<g
   id="g17">
</g>
</svg>
