<?xml version="1.0" encoding="UTF-8" standalone="no"?>
<!-- Generator: Adobe Illustrator 19.0.0, SVG Export Plug-In . SVG Version: 6.00 Build 0)  -->

<svg
   version="1.1"
   id="Capa_1"
   x="0px"
   y="0px"
   viewBox="0 0 512 512"
   style="enable-background:new 0 0 512 512;"
   xml:space="preserve"
   sodipodi:docname="rock.svg"
   inkscape:version="1.3.2 (091e20e, 2023-11-25)"
   xmlns:inkscape="http://www.inkscape.org/namespaces/inkscape"
   xmlns:sodipodi="http://sodipodi.sourceforge.net/DTD/sodipodi-0.dtd"
   xmlns="http://www.w3.org/2000/svg"
   xmlns:svg="http://www.w3.org/2000/svg"><defs
   id="defs19" /><sodipodi:namedview
   id="namedview19"
   pagecolor="#ffffff"
   bordercolor="#000000"
   borderopacity="0.25"
   inkscape:showpageshadow="2"
   inkscape:pageopacity="0.0"
   inkscape:pagecheckerboard="0"
   inkscape:deskcolor="#d1d1d1"
   inkscape:zoom="0.4609375"
   inkscape:cx="233.22034"
   inkscape:cy="269.01695"
   inkscape:window-width="1312"
   inkscape:window-height="449"
   inkscape:window-x="8"
   inkscape:window-y="389"
   inkscape:window-maximized="0"
   inkscape:current-layer="Capa_1" />
<path
   style="fill:#784421;fill-opacity:1"
   d="M406,150v69.6c0,25.499-6,51-17.401,73.801C382.899,306,376,313.5,376,329.099V512H241L136,150H406z"
   id="path1" />
<path
   style="fill:#502d16;fill-opacity:1"
   d="M406,150v69.6c0,25.499-6,51-17.401,73.801C382.899,306,376,313.5,376,329.099V512H271V150H406z"
   id="path2" />
<path
   style="fill:#6d3c1e;fill-opacity:1"
   d="M237.25,0L237.25,0C218.61,0,203,15.11,203,33.75C203,15.11,188.39,0,169.75,0l0,0  C151.11,0,136,15.11,136,33.75v112.5c0,18.64,15.11,33.75,33.75,33.75l0,0c18.64,0,33.25-15.11,33.25-33.75  c0,18.64,15.61,33.75,34.25,33.75l0,0c18.64,0,33.75-15.11,33.75-33.75V33.75C271,15.11,255.89,0,237.25,0z"
   id="path3" />
<path
   style="fill:#6c3d1e;fill-opacity:1"
   d="M372.25,30L372.25,30C353.61,30,338,45.11,338,63.75v-30C338,15.11,323.39,0,304.75,0l0,0  C286.11,0,271,15.11,271,33.75v112.5c0,18.64,15.11,33.75,33.75,33.75l0,0c18.64,0,33.25-15.11,33.25-33.75  c0,18.64,15.61,33.75,34.25,33.75l0,0c18.64,0,33.75-15.11,33.75-33.75v-82.5C406,45.11,390.89,30,372.25,30z"
   id="path4" />
<path
   style="fill:#a45b2d;fill-opacity:1;stroke-width:1.01277"
   d="m 275.33896,79.152542 h -120 c -24.85299,0 -44.99999,20.664876 -44.99999,46.156718 0,3.1602 0,69.25764 0,66.15899 0,39.38604 16.5,78.15769 47.70099,112.31366 8.099,8.61694 12.299,20.00124 12.299,31.6953 V 512 h 75 V 248.39384 c 0,-59.38831 -47.1,-107.69901 -104.99999,-107.69901 h 74.99999 c 33.137,0 60,-27.55351 60,-61.542288 z"
   id="path5" />
<g
   id="g5">
</g>
<g
   id="g6">
</g>
<g
   id="g7">
</g>
<g
   id="g8">
</g>
<g
   id="g9">
</g>
<g
   id="g10">
</g>
<g
   id="g11">
</g>
<g
   id="g12">
</g>
<g
   id="g13">
</g>
<g
   id="g14">
</g>
<g
   id="g15">
</g>
<g
   id="g16">
</g>
<g
   id="g17">
</g>
<g
   id="g18">
</g>
<g
   id="g19">
</g>
</svg>
