<?xml version="1.0" encoding="UTF-8" standalone="no"?>
<!-- Generator: Adobe Illustrator 19.0.0, SVG Export Plug-In . SVG Version: 6.00 Build 0)  -->

<svg
   version="1.1"
   id="Capa_1"
   x="0px"
   y="0px"
   viewBox="0 0 512 512"
   style="enable-background:new 0 0 512 512;"
   xml:space="preserve"
   sodipodi:docname="scissors.svg"
   inkscape:version="1.3.2 (091e20e, 2023-11-25)"
   xmlns:inkscape="http://www.inkscape.org/namespaces/inkscape"
   xmlns:sodipodi="http://sodipodi.sourceforge.net/DTD/sodipodi-0.dtd"
   xmlns="http://www.w3.org/2000/svg"
   xmlns:svg="http://www.w3.org/2000/svg"><defs
   id="defs20" /><sodipodi:namedview
   id="namedview20"
   pagecolor="#ffffff"
   bordercolor="#000000"
   borderopacity="0.25"
   inkscape:showpageshadow="2"
   inkscape:pageopacity="0.0"
   inkscape:pagecheckerboard="0"
   inkscape:deskcolor="#d1d1d1"
   inkscape:zoom="0.4609375"
   inkscape:cx="220.20339"
   inkscape:cy="282.0339"
   inkscape:window-width="1312"
   inkscape:window-height="449"
   inkscape:window-x="143"
   inkscape:window-y="342"
   inkscape:window-maximized="0"
   inkscape:current-layer="Capa_1" />
<g
   id="g2"
   style="fill:#784421;fill-opacity:1"
   transform="matrix(1,0,0,1.0969049,0,-4.1984521e-5)">
	<path
   style="fill:#784421;fill-opacity:1"
   d="m 286.053,33.648 c 0,1.503 0,3.306 -0.301,4.808 l -14.726,104.887 25.526,32.19 -39.052,63.982 c -2.704,18.333 -19.834,31.255 -38.167,28.852 -18.635,-2.706 -31.557,-19.836 -28.852,-38.169 L 218.731,29.14 c 2.704,-18.333 19.834,-31.255 38.169,-28.852 5.108,0.602 10.217,2.706 14.124,5.71 9.319,6.01 15.029,16.229 15.029,27.65 z"
   id="path1" />
	<path
   style="fill:#784421;fill-opacity:1"
   d="m 172.485,268.252 v 0 c -18.491,2.599 -35.588,-10.284 -38.187,-28.775 L 106.066,38.589 C 103.467,20.098 116.35,3.002 134.841,0.402 v 0 c 18.491,-2.599 35.587,10.284 38.187,28.775 l 28.233,200.887 c 2.598,18.492 -10.285,35.589 -28.776,38.188 z"
   id="path2" />
</g>
<path
   style="fill:#784421;fill-opacity:1"
   d="M271.027,128.315v51.091H256L135.786,209.46l105.187,302.539h135.241v-93.067  c0-15.627,6.911-23.14,12.621-35.762c11.42-22.841,17.432-48.387,17.432-73.933V209.46L271.027,128.315z"
   id="path3" />
<path
   style="fill:#502d16;fill-opacity:1;stroke-width:1.04966"
   d="m 406.268,178.66898 v 109.93327 c 0,28.14384 2.66697,60.62996 -8.75403,85.79679 -5.71,13.90555 -21.29897,17.84533 -21.29897,35.06283 V 512 H 271.027 l 0,-390.19247 z"
   id="path4"
   sodipodi:nodetypes="cscscccc" />
<path
   style="fill:#a45b2d;fill-opacity:1"
   d="m 273.19649,179.407 h -120.214 c -24.897,0 -45.08,20.183 -45.08,45.08 0,3.087 0,67.642 0,64.616 0,38.467 16.529,76.335 47.786,109.694 8.113,8.416 12.321,19.536 12.321,30.956 V 512 h 75.134 V 344.702 c 0,-58.003 -47.184,-105.187 -105.187,-105.187 h 75.134 c 33.194,0 60.106,-26.912 60.106,-60.108 z"
   id="path5" />
<path
   style="fill:#7b441e;fill-opacity:1"
   d="M372.457,89.247L372.457,89.247c-18.673,0-34.311,15.137-34.311,33.81  c0-18.673-14.636-33.81-33.309-33.81l0,0c-18.673,0-33.81,15.137-33.81,33.81v112.701c0,18.673,15.137,33.81,33.81,33.81l0,0  c18.673,0,33.309-15.137,33.309-33.81c0,18.673,15.638,33.81,34.311,33.81l0,0c18.673,0,33.81-15.137,33.81-33.81V123.057  C406.268,104.384,391.131,89.247,372.457,89.247z"
   id="path6" />
<g
   id="g6">
</g>
<g
   id="g7">
</g>
<g
   id="g8">
</g>
<g
   id="g9">
</g>
<g
   id="g10">
</g>
<g
   id="g11">
</g>
<g
   id="g12">
</g>
<g
   id="g13">
</g>
<g
   id="g14">
</g>
<g
   id="g15">
</g>
<g
   id="g16">
</g>
<g
   id="g17">
</g>
<g
   id="g18">
</g>
<g
   id="g19">
</g>
<g
   id="g20">
</g>
</svg>
